<svg width="60" height="52" viewBox="0 0 60 52" fill="none" xmlns="http://www.w3.org/2000/svg">
<path d="M59.4568 2.97938L57.8655 4.5066L13.8543 46.7038L9.69732 50.6891C8.75014 51.5961 7.18383 51.1584 6.84167 49.8973L5.97813 46.7027L0.0593545 24.7808C-0.143767 24.0248 0.186441 23.2253 0.86641 22.8354L8.49163 18.4796C9.59739 17.8475 10.9823 18.5948 11.0649 19.8635L11.7731 30.8744C11.8763 32.4853 13.9455 33.0816 14.8916 31.7695L28.7582 12.5163C28.9407 12.2578 29.1959 12.059 29.4903 11.9352L47.2912 4.46858L57.5982 0.144363C59.3601 -0.591003 60.8363 1.65637 59.4557 2.97612L59.4568 2.97938Z" fill="#E94E1B"/>
</svg>
