<?xml version="1.0" encoding="UTF-8"?>
<svg id="Camada_1" data-name="Camada 1" xmlns="http://www.w3.org/2000/svg" viewBox="0 0 1080 1080">
  <defs>
    <style>
      .cls-1 {
        fill: #36a9e1;
      }

      .cls-2 {
        fill: #e94e1b;
      }
    </style>
  </defs>
  <path d="m420.38,569.43l-30.58-85.1-31.41,85.1h-24.1l-42.05-114.35h25.6l29.25,87.76,31.41-87.76h22.6l30.75,87.92,30.08-87.92h25.6l-42.88,114.35h-24.27Z"/>
  <path class="cls-1" d="m691.46,511.26v26.58c0,22.28-10.31,31.59-34.58,31.59h-89.88l93.54-89.68c21.65.92,30.92,10.39,30.92,31.51Z"/>
  <path class="cls-2" d="m638.07,479.68l-37.83,15.87c-.63.26-1.17.68-1.56,1.23l-29.47,40.92c-2.01,2.79-6.41,1.52-6.63-1.9l-1.5-23.4c-.18-2.7-3.12-4.29-5.47-2.94l-16.21,9.26c-1.45.83-2.15,2.53-1.72,4.13l12.58,46.59h-30.98c-24.1,0-34.41-9.32-34.41-31.59v-26.58c0-22.28,10.31-31.59,34.41-31.59h118.78Z"/>
  <path d="m660.54,479.76l-93.54,89.68h-16.74l-12.58-46.59c-.43-1.61.27-3.31,1.72-4.13l16.21-9.26c2.35-1.34,5.29.25,5.47,2.94l1.5,23.4c.22,3.42,4.62,4.69,6.63,1.9l29.47-40.92c.39-.55.93-.97,1.56-1.23l37.83-15.87h18.81c1.26,0,2.48.03,3.66.08Z"/>
  <path d="m703,569.43v-117.34l22.11-7.48v124.82h-22.11Z"/>
  <path d="m747.21,569.43v-73.3h-10.3l2.66-16.45h7.65v-2.49c0-25.43,16.45-32.74,35.4-33.57l2.66,17.12c-11.14,1-16.29,4.49-16.29,17.29v1.66h18.78l-2.83,16.45h-15.96v73.3h-21.77Z"/>
  <path d="m304.42,636.39c-8.38,0-12.97-3.17-12.07-10.96l1.07-9.23c.9-7.79,6.23-10.96,14.61-10.96h14.31c5.67,0,7.89,3.12,8.51,5.02l-5.21,4.38c-.61-1.44-1.62-2.71-4.52-2.71h-13.86c-2.96,0-4.92,1.33-5.26,4.27l-1.07,9.23c-.34,2.94,1.31,4.27,4.28,4.27h14.18c2.9,0,4.27-1.27,5.14-2.65l4.27,4.33c-1.12,1.9-4,5.02-9.73,5.02h-14.63Z"/>
  <path d="m410.64,636.39l2.27-19.67c.37-3.17-.61-4.79-4.22-4.79h-11.21c-2.51,0-3.78.92-4.66,3l-2.48,21.46h-8.57l4.71-40.73,8.87-2.6-1.93,16.67c2.25-3.29,4.77-4.5,8.83-4.5h7.22c10.12,0,12.94,4.04,11.96,12.46l-2.16,18.69h-8.64Z"/>
  <path d="m484.25,636.39c-8.38,0-12.97-3.17-12.07-10.96l1.07-9.23c.9-7.79,6.23-10.96,14.61-10.96h11.54c8.44,0,13.04,3.17,12.14,10.96l-.85,7.33h-29.71l-.22,1.9c-.37,3.17,1.31,4.27,4.28,4.27h24.23l-1.87,6.69h-23.14Zm18.59-19.79c.39-3.35-.81-4.67-4.23-4.67h-11.54c-3.42,0-4.92,1.33-5.26,4.27l-.29,2.48h21.08l.24-2.08Z"/>
  <path d="m574.9,636.39c-8.38,0-12.97-3.17-12.07-10.96l1.07-9.23c.9-7.79,6.23-10.96,14.61-10.96h14.31c5.67,0,7.89,3.12,8.51,5.02l-5.21,4.38c-.61-1.44-1.62-2.71-4.52-2.71h-13.86c-2.96,0-4.92,1.33-5.26,4.27l-1.07,9.23c-.34,2.94,1.31,4.27,4.28,4.27h14.18c2.9,0,4.27-1.27,5.14-2.65l4.27,4.33c-1.12,1.9-4,5.02-9.73,5.02h-14.63Z"/>
  <path d="m678.72,636.39l-11.09-11.08-7.62,5.71-.62,5.36h-8.57l4.71-40.73,8.87-2.6-3.38,29.25,21.89-17.07h10.63l-20.09,15.46,16.36,15.69h-11.09Z"/>
  <path d="m742.16,636.39c.7-2.19,1.35-4.44,2-6.69h24.1c2.38,0,3.62-.63,3.93-3.29.31-2.65-.78-3.29-3.16-3.29h-12.76c-7.93,0-11.5-1.96-10.9-7.21l.39-3.35c.67-5.77,4.71-7.33,13.03-7.33h23.72l-2.01,6.75h-22.11c-2.38,0-3.62.63-3.92,3.23-.29,2.54.79,3.23,3.17,3.23h12.76c7.86,0,11.5,2.02,10.9,7.21l-.4,3.46c-.67,5.77-4.71,7.27-13.02,7.27h-25.72Z"/>
  <path d="m663.92,476.51l-3.38,3.25-93.54,89.68-8.83,8.47c-2.01,1.93-5.34,1-6.07-1.68l-1.83-6.79-12.58-46.59c-.43-1.61.27-3.31,1.72-4.13l16.21-9.26c2.35-1.34,5.29.25,5.47,2.94l1.5,23.4c.22,3.42,4.62,4.69,6.63,1.9l29.47-40.92c.39-.55.93-.97,1.56-1.23l37.83-15.87,21.9-9.19c3.75-1.56,6.88,3.21,3.95,6.02Z"/>
</svg>