<?xml version="1.0" encoding="UTF-8"?>
<svg id="Camada_1" data-name="Camada 1" xmlns="http://www.w3.org/2000/svg" viewBox="0 0 1080 1080">
  <defs>
    <style>
      .cls-1 {
        fill: #36a9e1;
      }

      .cls-2 {
        fill: #e94e1b;
      }
    </style>
  </defs>
  <path d="m582.33,804.05l9.92,35.96c.67,2.41-1.15,4.8-3.66,4.8h-17.41c-1.76,0-3.29,1.21-3.69,2.93l-9.89,42.23c-.56,2.38,1.25,4.66,3.69,4.66h31.43c.98,0,1.93-.38,2.64-1.07l34.3-33.19c.83-.81,1.25-1.95,1.14-3.1l-8.89-89.9c-.12-1.24.37-2.47,1.33-3.27l58.23-49.14c3.38-2.85,8.08,1.4,5.57,5.05l-35.54,51.64c-.61.89-.82,2-.56,3.05l11.43,46.71c.69,2.82,4.17,3.85,6.29,1.86l149.36-140.94c1.04-.98,1.44-2.45,1.04-3.82l-26.54-91.16c-.91-3.12,2.28-5.87,5.23-4.5l28.13,12.98c2.62,1.21,5.58-.84,5.37-3.72l-7.25-99.17c-.11-1.47-1.05-2.74-2.42-3.26l-122.96-47.15c-.7-.27-1.3-.74-1.73-1.35l-46.35-65.28c-1.01-1.42-.92-3.34.21-4.66l94.18-109.89c2.55-2.98,7.39-.6,6.59,3.24l-32.6,157.12c-.54,2.61,1.71,4.95,4.34,4.51l54.25-9.03c1.79-.3,3.12-1.83,3.17-3.65l5.6-224.29c.07-2.86-2.94-4.77-5.49-3.48l-170.66,85.79c-1.47.74-2.3,2.34-2.04,3.97l5.16,33.24c.6,3.89-4.4,6.01-6.77,2.87l-28.21-37.33c-.72-.95-1.84-1.51-3.03-1.51h-70.43c-1.19,0-2.31.56-3.03,1.51l-28.21,37.33c-2.38,3.14-7.38,1.03-6.77-2.87l5.16-33.24c.25-1.63-.57-3.23-2.04-3.97l-170.66-85.79c-2.56-1.29-5.57.62-5.49,3.48l5.6,224.29c.05,1.82,1.37,3.35,3.17,3.65l54.25,9.03c2.63.44,4.88-1.9,4.34-4.51l-32.6-157.12c-.8-3.84,4.04-6.21,6.59-3.24l94.18,109.89c1.13,1.32,1.22,3.24.21,4.66l-46.35,65.28c-.43.61-1.04,1.08-1.73,1.35l-122.96,47.15c-1.37.53-2.32,1.8-2.42,3.26l-7.25,99.17c-.21,2.88,2.75,4.93,5.37,3.72l28.13-12.98c2.95-1.36,6.14,1.38,5.23,4.5l-26.54,91.16c-.4,1.37,0,2.84,1.04,3.82l149.36,140.94c2.11,2,5.59.97,6.29-1.86l11.43-46.71c.26-1.05.05-2.16-.56-3.05l-35.54-51.64c-2.51-3.64,2.19-7.9,5.57-5.05l58.23,49.14c.95.81,1.45,2.03,1.33,3.27l-8.89,89.9c-.11,1.15.3,2.29,1.14,3.1l34.3,33.19c.71.68,1.65,1.07,2.64,1.07h31.43c2.44,0,4.25-2.28,3.69-4.66l-9.89-42.23c-.4-1.71-1.93-2.93-3.69-2.93h-17.41c-2.5,0-4.32-2.39-3.66-4.8l9.92-35.96c.45-1.64,1.95-2.78,3.66-2.78h77.35c1.71,0,3.2,1.14,3.66,2.78Z"/>
  <path class="cls-1" d="m712.82,509.14l-58.86,24.68c-.61.26-1.14.68-1.53,1.22l-29.04,40.31c-1.98,2.75-6.31,1.5-6.53-1.88l-1.49-23.05c-.17-2.66-3.07-4.22-5.39-2.9l-15.96,9.12c-1.42.81-2.12,2.49-1.69,4.07l14.2,52.59c.71,2.65,4,3.56,5.98,1.66l104.2-99.9c2.89-2.77-.2-7.48-3.89-5.93Z"/>
  <path class="cls-2" d="m367.18,509.14l58.86,24.68c.61.26,1.14.68,1.53,1.22l29.04,40.31c1.98,2.75,6.31,1.5,6.53-1.88l1.49-23.05c.17-2.66,3.07-4.22,5.39-2.9l15.96,9.12c1.42.81,2.12,2.49,1.69,4.07l-14.2,52.59c-.71,2.65-4,3.56-5.98,1.66l-104.2-99.9c-2.89-2.77.2-7.48,3.89-5.93Z"/>
</svg>