<?xml version="1.0" encoding="UTF-8"?>
<svg id="Camada_1" data-name="Camada 1" xmlns="http://www.w3.org/2000/svg" viewBox="0 0 1080 1080">
  <defs>
    <style>
      .cls-1 {
        fill: #36a9e1;
      }

      .cls-2 {
        fill: #e94e1b;
      }
    </style>
  </defs>
  <path class="cls-1" d="m987.43,482.42v115.14c0,96.5-44.64,136.86-149.78,136.86h-389.33l405.18-388.48c93.79,3.99,133.93,45.01,133.93,136.49Z"/>
  <path class="cls-2" d="m756.16,345.6l-163.88,68.74c-2.71,1.14-5.05,2.97-6.74,5.35l-127.66,177.25c-8.72,12.08-27.76,6.59-28.71-8.24l-6.52-101.37c-.77-11.68-13.51-18.57-23.69-12.74l-70.2,40.1c-6.26,3.59-9.3,10.95-7.43,17.91l54.49,201.82h-134.18c-104.41,0-149.05-40.36-149.05-136.86v-115.14c0-96.5,44.64-136.82,149.05-136.82h514.53Z"/>
  <path d="m853.5,345.93l-405.18,388.48h-72.51l-54.49-201.82c-1.87-6.96,1.17-14.32,7.43-17.91l70.2-40.1c10.18-5.82,22.93,1.06,23.69,12.74l6.52,101.37c.95,14.83,20,20.32,28.71,8.24l127.66-177.25c1.68-2.38,4.03-4.21,6.74-5.35l163.88-68.74h81.48c5.46,0,10.73.11,15.86.33Z"/>
  <path d="m868.15,331.87l-14.65,14.06-405.18,388.48-38.27,36.69c-8.72,8.35-23.14,4.32-26.29-7.29l-7.95-29.41-54.49-201.82c-1.87-6.96,1.17-14.32,7.43-17.91l70.2-40.1c10.18-5.82,22.93,1.06,23.69,12.74l6.52,101.37c.95,14.83,20,20.32,28.71,8.24l127.66-177.25c1.68-2.38,4.03-4.21,6.74-5.35l163.88-68.74,94.89-39.81c16.22-6.77,29.81,13.92,17.1,26.07Z"/>
</svg>